<?xml version="1.0" encoding="UTF-8"?>
<svg width="56px" height="56px" viewBox="0 0 56 56" version="1.1" xmlns="http://www.w3.org/2000/svg" xmlns:xlink="http://www.w3.org/1999/xlink">
    <title>Combined Shape</title>
    <g id="///-Tab-Loader" stroke="none" stroke-width="1" fill="none" fill-rule="evenodd">
        <g id="AllNews-B" transform="translate(-690.000000, -235.000000)" fill="#7F7F7F">
            <g id="Group-2" transform="translate(544.000000, 235.000000)">
                <g id="Group" transform="translate(127.000000, 0.000000)">
                    <path d="M47,0 C62.463973,0 75,12.536027 75,28 C75,43.463973 62.463973,56 47,56 C31.536027,56 19,43.463973 19,28 C19,12.536027 31.536027,0 47,0 Z M47,4.5 C33.5,4.5 23.755127,13.5623094 22.5951325,26.8211064 C21.3917629,40.5756849 31.5665279,52.7014978 45.3211064,53.9048675 C59.0756849,55.1082371 71.2014978,44.9334721 72.4048675,31.1788936 C70.4682892,31.0596312 69.5,31 69.5,31 C69.5,13.5 59.5,4.5 47,4.5 Z" id="Combined-Shape"></path>
                </g>
            </g>
        </g>
    </g>
</svg>